<?xml version="1.0" encoding="UTF-8" standalone="no"?>
<!-- Created with Inkscape (http://www.inkscape.org/) -->

<svg
   height="16"
   width="16"
   viewBox="0 0 16 16"
   id="svg2"
   version="1.1"
   inkscape:version="1.2.2 (b0a8486541, 2022-12-01)"
   sodipodi:docname="xc_crosshair-symbolic.svg"
   xmlns:inkscape="http://www.inkscape.org/namespaces/inkscape"
   xmlns:sodipodi="http://sodipodi.sourceforge.net/DTD/sodipodi-0.dtd"
   xmlns="http://www.w3.org/2000/svg"
   xmlns:svg="http://www.w3.org/2000/svg">
  <defs
     id="defs8" />
  <sodipodi:namedview
     pagecolor="#ffffff"
     bordercolor="#666666"
     borderopacity="1"
     objecttolerance="10"
     gridtolerance="10"
     guidetolerance="10"
     inkscape:pageopacity="0"
     inkscape:pageshadow="2"
     inkscape:window-width="1278"
     inkscape:window-height="1005"
     id="namedview6"
     showgrid="true"
     units="px"
     inkscape:zoom="28.704946"
     inkscape:cx="8.9009051"
     inkscape:cy="8.9531609"
     inkscape:window-x="640"
     inkscape:window-y="3"
     inkscape:window-maximized="0"
     inkscape:current-layer="svg2"
     inkscape:showpageshadow="2"
     inkscape:pagecheckerboard="0"
     inkscape:deskcolor="#d1d1d1" />
  <rect
     style="fill:#61757f;stroke:none;stroke-width:1;stroke-linejoin:round;stroke-opacity:1;-inkscape-stroke:none;paint-order:markers fill stroke;stop-color:#000000"
     id="rect917"
     width="3"
     height="2"
     x="1"
     y="7"
     ry="0.5"
     rx="0.5" />
  <rect
     style="fill:#61757f;stroke:none;stroke-width:1;stroke-linejoin:round;stroke-opacity:1;-inkscape-stroke:none;paint-order:markers fill stroke;stop-color:#000000"
     id="rect1283"
     width="3"
     height="2"
     x="12"
     y="7"
     ry="0.5"
     rx="0.5" />
  <rect
     style="fill:#61757f;stroke:none;stroke-width:1;stroke-linejoin:round;stroke-opacity:1;-inkscape-stroke:none;paint-order:markers fill stroke;stop-color:#000000"
     id="rect1339"
     width="3"
     height="2"
     x="1"
     y="-9"
     transform="rotate(90)"
     ry="0.5"
     rx="0.5" />
  <rect
     style="fill:#61757f;stroke:none;stroke-width:1;stroke-linejoin:round;stroke-opacity:1;-inkscape-stroke:none;paint-order:markers fill stroke;stop-color:#000000"
     id="rect1341"
     width="3"
     height="2"
     x="12"
     y="-9"
     transform="rotate(90)"
     ry="0.5"
     rx="0.5" />
  <circle
     style="fill:#61757f;fill-opacity:1;stroke:none;stroke-width:1;stroke-linejoin:round;stroke-opacity:1;-inkscape-stroke:none;paint-order:markers fill stroke;stop-color:#000000"
     id="path1395"
     cx="8"
     cy="8"
     r="2" />
  <path
     style="color:#000000;fill:#61757f;stroke-linejoin:round;-inkscape-stroke:none;paint-order:markers fill stroke"
     d="M 8,2 C 4.692217,2 2,4.692217 2,8 c 0,3.307783 2.692217,6 6,6 3.307783,0 6,-2.692217 6,-6 C 14,4.692217 11.307783,2 8,2 Z m 0,1 c 2.767343,0 5,2.232656 5,5 0,2.767343 -2.232657,5 -5,5 C 5.232657,13 3,10.767343 3,8 3,5.232656 5.232657,3 8,3 Z"
     id="path17582" />
</svg>
